<svg width="38" height="19" viewBox="0 0 38 19" fill="none" xmlns="http://www.w3.org/2000/svg"><path d="M2.46369 5.4616C2.45405 2.92035 4.07935 1.51158 7.06654 1.50033C9.21218 1.4923 9.59442 2.89144 9.59763 3.40868C9.59763 4.38695 8.21324 5.42466 8.21324 5.42466C8.21324 5.42466 8.29033 6.03347 9.47718 6.03025C10.664 6.02704 11.822 5.24153 11.8155 3.27696C11.8075 1.02164 9.44666 0 7.11151 0C5.15859 0 -0.0192186 0.281112 5.3654e-05 5.42466C0.0161139 9.99474 8.6292 10.3963 8.64044 13.3215C8.65168 16.4989 5.08793 17.3534 3.88662 17.3583C2.68532 17.3631 2.19227 16.5005 2.18906 16.0282C2.18103 13.458 4.73942 12.7384 4.73942 12.7384C4.73516 12.5941 4.70199 12.4522 4.64186 12.321C4.58173 12.1898 4.49587 12.072 4.38937 11.9747C4.28288 11.8773 4.15791 11.8023 4.02189 11.7541C3.88587 11.7059 3.74157 11.6856 3.59754 11.6943C1.04557 11.7039 0.028962 13.9014 0.0369921 16.0459C0.0369921 17.8691 1.33144 19.008 3.27794 19C6.99748 18.9871 11.1924 17.1703 11.178 13.1368C11.1635 9.36344 2.47493 8.37874 2.46369 5.4616Z" fill="white"></path><path d="M37.93 15.5688C37.9011 15.4965 37.8176 15.5142 37.7067 15.6057C37.286 15.9543 36.3207 16.9406 34.0595 16.9502C29.9432 16.9647 29.2302 10.1746 29.2302 10.1746C29.2302 10.1746 32.3683 7.82936 32.8582 6.88482C33.348 5.94028 31.7886 5.72985 31.7886 5.72985C31.7886 5.72985 29.5915 8.40122 28.0353 9.18673C28.1959 8.02533 29.3522 5.37645 29.4229 3.85202C29.4936 2.32759 27.5904 2.70027 27.2869 2.84645C27.2869 3.51148 25.6086 9.55137 24.9967 12.8701C24.637 13.4452 24.123 14.1054 23.6637 14.107C23.3971 14.107 23.2991 13.6122 23.2959 12.9038C23.2959 11.9207 23.8372 10.3449 23.8323 9.38752C23.8323 8.7257 23.5288 8.68555 23.267 8.68715L22.8382 8.69518C22.1685 8.69518 22.3869 8.12332 21.7847 8.12493C19.9345 8.13296 17.5785 10.1521 17.4757 13.2026C16.8526 13.6171 15.9789 14.1359 15.5324 14.1359C15.0859 14.1359 14.9478 13.7038 14.9462 13.3327C14.9462 12.6741 16.0094 8.76747 16.0094 8.76747C16.0094 8.76747 17.3633 8.4205 17.9543 8.30645C18.4008 8.2181 18.526 8.18597 18.7027 7.96911C18.8794 7.75225 19.2166 7.30729 19.4913 6.9057C19.7659 6.50412 19.4913 6.1957 18.9886 6.1973C18.3221 6.1973 16.541 6.61977 16.541 6.61977C16.541 6.61977 17.397 2.92516 17.3954 2.85127C17.3938 2.77737 17.2958 2.73882 17.1545 2.73882C16.8333 2.73882 16.2519 2.91391 15.8825 3.04563C15.3156 3.24803 14.8531 3.94359 14.7583 4.26807C14.6636 4.59255 14.026 7.12417 14.026 7.12417C14.026 7.12417 10.6003 8.30966 10.1185 8.48796C10.1045 8.49291 10.0924 8.50203 10.0838 8.5141C10.0752 8.52617 10.0705 8.5406 10.0703 8.55543C10.0703 8.58434 10.4638 10.0879 11.2684 10.0847C11.8482 10.0847 13.5345 9.39234 13.5345 9.39234C13.5345 9.39234 12.6737 12.8508 12.6769 14.001C12.6769 14.7399 13.0254 15.6073 14.4692 15.6073C15.8151 15.6073 16.9875 14.9134 17.6443 14.4299C17.7895 14.7814 18.0387 15.0802 18.3585 15.286C18.6783 15.4919 19.0534 15.595 19.4334 15.5816C20.7343 15.5816 21.7397 14.5423 21.865 14.4042C22.0256 14.8025 22.4319 15.5704 23.3409 15.5672C23.8548 15.5672 24.388 14.9857 24.7863 14.4315C24.7763 14.5475 24.7763 14.6641 24.7863 14.7801C24.9469 16.2129 27.0685 15.3712 27.1825 15.1704C27.2532 14.1359 27.2082 12.0171 27.6225 10.7096C28.1702 15.1704 30.2516 18.1711 33.9952 18.1566C36.0831 18.1486 37.1575 17.5478 37.6056 17.0514C37.784 16.8539 37.9078 16.6132 37.9647 16.3532C38.0215 16.0932 38.0096 15.8228 37.93 15.5688ZM19.9747 14.099C18.1775 14.099 20.5239 9.44053 22.0625 9.44053C22.0593 10.0397 22.0256 14.0909 19.9747 14.099Z" fill="white"></path><path d="M34.5617 15.527C36.1838 15.527 37.4413 14.454 37.671 14.1054C37.9681 13.6524 37.3257 12.9697 37.1201 12.9809C36.6094 13.4709 36.073 14.0636 34.8717 14.0684C33.4552 14.0684 33.7764 12.5151 33.7764 12.5151C33.7764 12.5151 36.5066 12.8685 37.5939 10.9087C37.944 10.2823 37.9584 9.41483 37.8171 9.04216C37.6758 8.66948 36.8856 7.97715 35.6233 8.07835C34.0751 8.20846 32.1238 9.82445 31.695 11.773C31.3513 13.3327 32.0017 15.5367 34.5617 15.527ZM36.2962 8.99557C36.5516 8.98754 36.5291 9.4068 36.4568 9.84694C36.3621 10.4413 35.5414 11.9497 33.9803 11.887C34.0863 11.0115 35.2475 9.02609 36.2962 8.99557Z" fill="white"></path></svg>